<svg width="22" height="10" viewBox="0 0 22 10" fill="none" xmlns="http://www.w3.org/2000/svg">
<path d="M11 0.5H6L3 3H2C0.89 3 0 3.89 0 5V8H2.17C2.6 9.2 3.73 10 5 10C6.27 10 7.4 9.2 7.82 8H14.17C14.6 9.2 15.73 10 17 10C18.27 10 19.4 9.2 19.82 8H22V7C22 5.89 20.97 5.53 20 5L11 0.5ZM4.25 4L6.5 2H10.5L14.5 4H4.25ZM5 5.5C5.39782 5.5 5.77936 5.65804 6.06066 5.93934C6.34196 6.22064 6.5 6.60218 6.5 7C6.5 7.39782 6.34196 7.77936 6.06066 8.06066C5.77936 8.34196 5.39782 8.5 5 8.5C4.60218 8.5 4.22064 8.34196 3.93934 8.06066C3.65804 7.77936 3.5 7.39782 3.5 7C3.5 6.60218 3.65804 6.22064 3.93934 5.93934C4.22064 5.65804 4.60218 5.5 5 5.5ZM17 5.5C17.3978 5.5 17.7794 5.65804 18.0607 5.93934C18.342 6.22064 18.5 6.60218 18.5 7C18.5 7.39782 18.342 7.77936 18.0607 8.06066C17.7794 8.34196 17.3978 8.5 17 8.5C16.6022 8.5 16.2206 8.34196 15.9393 8.06066C15.658 7.77936 15.5 7.39782 15.5 7C15.5 6.60218 15.658 6.22064 15.9393 5.93934C16.2206 5.65804 16.6022 5.5 17 5.5Z" fill="white"/>
</svg>
