<svg width="24" height="24" viewBox="0 0 24 24" fill="none" xmlns="http://www.w3.org/2000/svg">
<path d="M10 4H7.2C6.08 4 5.52 4 5.092 4.218C4.71565 4.40969 4.40969 4.71565 4.218 5.092C4 5.52 4 6.08 4 7.2V16.8C4 17.92 4 18.48 4.218 18.908C4.40974 19.2843 4.71569 19.5903 5.092 19.782C5.519 20 6.079 20 7.197 20H16.803C17.921 20 18.48 20 18.907 19.782C19.284 19.59 19.59 19.284 19.782 18.908C20 18.48 20 17.921 20 16.803V14M16 5L10 11V14H13L19 8M16 5L19 2L22 5L19 8M16 5L19 8" stroke="white" stroke-width="2" stroke-linecap="round" stroke-linejoin="round"/>
</svg>
