<svg width="20" height="20" viewBox="0 0 20 20" fill="none" xmlns="http://www.w3.org/2000/svg">
<path d="M10 19.0001L18.131 14.7921C18.447 14.6281 18.605 14.5471 18.72 14.4261C18.8219 14.3199 18.899 14.1926 18.946 14.0531C19 13.8941 19 13.7171 19 13.3611V5.53311M10 19.0001L1.869 14.7921C1.553 14.6281 1.395 14.5471 1.28 14.4261C1.17838 14.3197 1.10124 14.1924 1.054 14.0531C1 13.8941 1 13.7161 1 13.3591V5.53311M10 19.0001V9.93711M19 5.53311L10 9.93711M19 5.53311L14.5 3.20311M1 5.53311L9.269 1.25411C9.537 1.11611 9.67 1.04611 9.811 1.01911C9.93584 0.994932 10.0642 0.994932 10.189 1.01911C10.329 1.04611 10.463 1.11611 10.73 1.25411L14.5 3.20311M1 5.53311L5.5 7.73611M10 9.93711L5.5 7.73511M14.5 3.20311L5.5 7.73511M5.5 7.73511V9.93711" stroke="white" stroke-width="1.5" stroke-linecap="round" stroke-linejoin="round"/>
</svg>
